<svg width="40" height="40" viewBox="0 0 40 40" fill="none" xmlns="http://www.w3.org/2000/svg">
<path d="M39.6195 15.849C39.6195 11.7749 36.3046 8.45999 32.2301 8.45999C31.3241 8.45999 30.4591 8.63187 29.6562 8.93201C27.5782 6.44151 24.7681 4.76031 21.6644 4.09569V3.39609C21.6644 1.52358 20.1408 0 18.2679 0C16.3953 0 14.8718 1.52358 14.8718 3.39609V4.29434C8.79258 5.95697 4.30563 11.5141 4.30563 18.1132V29.4338H3.92819C2.05568 29.4338 0.532104 30.9573 0.532104 32.8303C0.532104 34.7028 2.05568 36.2264 3.92819 36.2264H14.2529C14.7638 38.4189 16.7024 39.9999 19.0227 39.9999C21.3431 39.9999 23.2821 38.4189 23.7925 36.2264H33.3624C35.2353 36.2264 36.7585 34.7028 36.7585 32.8303C36.7585 30.9573 35.2353 29.4338 33.3624 29.4338H32.985V23.2C36.7062 22.8204 39.6195 19.6687 39.6195 15.849ZM38.1102 15.849C38.1102 19.0913 35.4724 21.7287 32.2301 21.7287C28.9882 21.7287 26.3504 19.0913 26.3504 15.849C26.3504 12.6066 28.9882 9.96932 32.2301 9.96932C35.4724 9.96932 38.1102 12.6066 38.1102 15.849ZM16.3811 3.39609C16.3811 2.35576 17.2271 1.50932 18.2679 1.50932C19.3086 1.50932 20.1546 2.35576 20.1546 3.39609V3.85472C19.6563 3.80246 19.1527 3.77353 18.6453 3.77353C17.8731 3.77353 17.1209 3.85212 16.3811 3.97002V3.39609ZM19.0227 38.4906C17.5436 38.4906 16.2969 37.5578 15.8305 36.2264H22.215C21.7486 37.5578 20.5018 38.4906 19.0227 38.4906ZM33.3624 30.9435C34.4032 30.9435 35.2492 31.79 35.2492 32.8303C35.2492 33.8706 34.4032 34.7171 33.3624 34.7171H3.92819C2.88743 34.7171 2.04143 33.8706 2.04143 32.8303C2.04143 31.79 2.88743 30.9435 3.92819 30.9435H5.06051C5.47768 30.9435 5.81496 30.6054 5.81496 30.1887V18.1132C5.81496 11.0386 11.5707 5.28285 18.6453 5.28285C22.3454 5.28285 25.811 6.87077 28.2506 9.63333C26.2031 10.9483 24.8407 13.2406 24.8407 15.849C24.8407 19.6687 27.7544 22.8204 31.4752 23.2V30.1887C31.4752 30.6054 31.8129 30.9435 32.2301 30.9435H33.3624Z" fill="#E21F26" fill-opacity="0.7"/>
<path d="M20.9095 29.4338H19.4002C18.983 29.4338 18.6453 29.7719 18.6453 30.1887C18.6453 30.6054 18.983 30.9435 19.4002 30.9435H20.9095C21.3267 30.9435 21.6644 30.6054 21.6644 30.1887C21.6644 29.7719 21.3267 29.4338 20.9095 29.4338Z" fill="#E21F26" fill-opacity="0.7"/>
<path d="M16.6324 29.4338H8.83401C8.41684 29.4338 8.07913 29.7719 8.07913 30.1887C8.07913 30.6054 8.41684 30.9435 8.83401 30.9435H16.6324C17.0496 30.9435 17.3873 30.6054 17.3873 30.1887C17.3873 29.7719 17.0496 29.4338 16.6324 29.4338Z" fill="#E21F26" fill-opacity="0.7"/>
<path d="M33.5293 20H31.7188V15.043L31.7363 14.2285L31.7656 13.3379C31.4648 13.6387 31.2559 13.8359 31.1387 13.9297L30.1543 14.7207L29.2812 13.6309L32.041 11.4336H33.5293V20Z" fill="#E21F26" fill-opacity="0.7"/>
</svg>
