<svg width="18" height="14" viewBox="0 0 18 14" fill="none" xmlns="http://www.w3.org/2000/svg">
<path d="M17.7373 0.387484C17.4346 0.144203 16.992 0.192472 16.7488 0.495168L7.39306 12.1388C7.26607 12.2746 7.09444 12.3533 6.90801 12.3608C6.71609 12.3685 6.53433 12.3 6.39743 12.1699L1.18967 7.17798C0.909295 6.90928 0.464252 6.91874 0.195518 7.19904C-0.0731817 7.47938 -0.0637598 7.92446 0.216576 8.19319L5.42642 13.1871C5.82228 13.5633 6.3345 13.7677 6.87724 13.7677C6.90625 13.7677 6.93543 13.7671 6.96457 13.7659C7.53945 13.7428 8.06746 13.494 8.45126 13.0654C8.45959 13.056 8.46768 13.0465 8.47555 13.0367L17.845 1.37601C18.0882 1.07328 18.04 0.63073 17.7373 0.387484Z" fill="black"/>
</svg>
