<svg width="50" height="147" viewBox="0 0 50 147" fill="none" xmlns="http://www.w3.org/2000/svg">
<rect x="0.000244141" y="-1.5791" width="2.94115" height="3.05263" fill="white"/>
<rect x="11.7649" y="-1.5791" width="2.94115" height="3.05263" fill="white"/>
<rect x="23.5293" y="-1.57861" width="2.94115" height="3.05263" fill="white"/>
<rect x="35.2942" y="-1.5791" width="2.94115" height="3.05263" fill="white"/>
<rect x="47.0588" y="-1.5791" width="2.94115" height="3.05263" fill="white"/>
<rect x="0.000488281" y="10.6313" width="2.94115" height="3.05263" fill="white"/>
<rect x="11.7646" y="10.6318" width="2.94115" height="3.05263" fill="white"/>
<rect x="23.5295" y="10.6313" width="2.94115" height="3.05263" fill="white"/>
<rect x="35.2942" y="10.6313" width="2.94115" height="3.05263" fill="white"/>
<rect x="47.0586" y="10.6318" width="2.94115" height="3.05263" fill="white"/>
<rect y="22.842" width="2.94115" height="3.05263" fill="white"/>
<rect x="11.7646" y="22.842" width="2.94115" height="3.05263" fill="white"/>
<rect x="23.5298" y="22.8416" width="2.94115" height="3.05263" fill="white"/>
<rect x="35.2939" y="22.842" width="2.94115" height="3.05263" fill="white"/>
<rect x="47.0586" y="22.842" width="2.94115" height="3.05263" fill="white"/>
<rect y="35.0525" width="2.94115" height="3.05263" fill="white"/>
<rect x="11.7646" y="35.0525" width="2.94115" height="3.05263" fill="white"/>
<rect x="23.5293" y="35.0525" width="2.94115" height="3.05263" fill="white"/>
<rect x="35.2939" y="35.0525" width="2.94115" height="3.05263" fill="white"/>
<rect x="47.0586" y="35.0525" width="2.94115" height="3.05263" fill="white"/>
<rect x="0.000244141" y="47.2632" width="2.94115" height="3.05263" fill="white"/>
<rect x="11.7646" y="47.2632" width="2.94115" height="3.05263" fill="white"/>
<rect x="23.5293" y="47.2632" width="2.94115" height="3.05263" fill="white"/>
<rect x="35.2939" y="47.2632" width="2.94115" height="3.05263" fill="white"/>
<rect x="47.0586" y="47.2632" width="2.94115" height="3.05263" fill="white"/>
<rect x="0.000244141" y="59.4731" width="2.94115" height="3.05263" fill="white"/>
<rect x="11.7649" y="59.4731" width="2.94115" height="3.05263" fill="white"/>
<rect x="23.5295" y="59.4731" width="2.94115" height="3.05263" fill="white"/>
<rect x="35.2939" y="59.4731" width="2.94115" height="3.05263" fill="white"/>
<rect x="47.0586" y="59.4731" width="2.94115" height="3.05263" fill="white"/>
<rect x="0.000244141" y="71.6836" width="2.94115" height="3.05263" fill="white"/>
<rect x="11.7649" y="71.6836" width="2.94115" height="3.05263" fill="white"/>
<rect x="23.5295" y="71.6841" width="2.94115" height="3.05263" fill="white"/>
<rect x="35.2939" y="71.6841" width="2.94115" height="3.05263" fill="white"/>
<rect x="47.0588" y="71.6841" width="2.94115" height="3.05263" fill="white"/>
<rect x="0.000244141" y="83.8945" width="2.94115" height="3.05263" fill="white"/>
<rect x="11.7646" y="83.8945" width="2.94115" height="3.05263" fill="white"/>
<rect x="23.5293" y="83.8945" width="2.94115" height="3.05263" fill="white"/>
<rect x="35.2942" y="83.8945" width="2.94115" height="3.05263" fill="white"/>
<rect x="47.0586" y="83.894" width="2.94115" height="3.05263" fill="white"/>
<rect y="96.105" width="2.94115" height="3.05263" fill="white"/>
<rect x="11.7649" y="96.105" width="2.94115" height="3.05263" fill="white"/>
<rect x="23.5298" y="96.105" width="2.94115" height="3.05263" fill="white"/>
<rect x="35.2939" y="96.105" width="2.94115" height="3.05263" fill="white"/>
<rect x="47.0586" y="96.105" width="2.94115" height="3.05263" fill="white"/>
<rect y="108.315" width="2.94115" height="3.05263" fill="white"/>
<rect x="11.7649" y="108.315" width="2.94115" height="3.05263" fill="white"/>
<rect x="23.5293" y="108.315" width="2.94115" height="3.05263" fill="white"/>
<rect x="35.2939" y="108.315" width="2.94115" height="3.05263" fill="white"/>
<rect x="47.0588" y="108.315" width="2.94115" height="3.05263" fill="white"/>
<rect y="120.526" width="2.94115" height="3.05263" fill="white"/>
<rect x="11.7646" y="120.526" width="2.94115" height="3.05263" fill="white"/>
<rect x="23.5293" y="120.526" width="2.94115" height="3.05263" fill="white"/>
<rect x="35.2939" y="120.526" width="2.94115" height="3.05263" fill="white"/>
<rect x="47.0588" y="120.526" width="2.94115" height="3.05263" fill="white"/>
<rect x="0.000244141" y="132.737" width="2.94115" height="3.05263" fill="white"/>
<rect x="11.7649" y="132.737" width="2.94115" height="3.05263" fill="white"/>
<rect x="23.5295" y="132.737" width="2.94115" height="3.05263" fill="white"/>
<rect x="35.2939" y="132.737" width="2.94115" height="3.05263" fill="white"/>
<rect x="47.0586" y="132.737" width="2.94115" height="3.05263" fill="white"/>
<rect y="144.947" width="2.94115" height="3.05263" fill="white"/>
<rect x="11.7651" y="144.947" width="2.94115" height="3.05263" fill="white"/>
<rect x="23.5295" y="144.947" width="2.94115" height="3.05263" fill="white"/>
<rect x="35.2939" y="144.947" width="2.94115" height="3.05263" fill="white"/>
<rect x="47.0586" y="144.947" width="2.94115" height="3.05263" fill="white"/>
</svg>
