<svg width="30" height="30" viewBox="0 0 30 30" fill="none" xmlns="http://www.w3.org/2000/svg">
<path d="M29.2128 23.144L23.1407 19.0943C22.3701 18.5845 21.3372 18.7522 20.7675 19.4797L18.9988 21.7541C18.7715 22.0538 18.3583 22.1408 18.0294 21.9581L17.693 21.7726C16.5776 21.1646 15.1899 20.4077 12.3938 17.6104C9.59768 14.8131 8.8393 13.4242 8.23136 12.3108L8.04688 11.9744C7.86169 11.6455 7.94699 11.2306 8.24683 11.0014L10.5195 9.23308C11.2466 8.6633 11.4146 7.63061 10.9054 6.85975L6.85602 0.787208C6.3342 0.00222986 5.28728 -0.233416 4.47945 0.25223L1.94032 1.7776C1.14251 2.24667 0.557184 3.00633 0.307084 3.89742C-0.607253 7.22915 0.0805938 12.9792 8.55036 21.4506C15.2879 28.188 20.3036 29.9999 23.7511 29.9999C24.5446 30.0033 25.3349 29.9001 26.1008 29.693C26.992 29.4431 27.7517 28.8577 28.2205 28.0596L29.7473 25.5218C30.2336 24.7138 29.9981 23.6661 29.2128 23.144ZM28.8858 25.0088L27.3626 27.5481C27.026 28.1242 26.4796 28.5477 25.8378 28.7301C22.7622 29.5745 17.389 28.8751 9.25771 20.7432C1.1264 12.6113 0.427066 7.23818 1.27145 4.16195C1.454 3.51934 1.87804 2.97218 2.45475 2.63505L4.99389 1.11168C5.34441 0.900754 5.79879 1.00299 6.02522 1.34363L8.22492 4.64636L10.0712 7.41564C10.2923 7.75001 10.2196 8.19816 9.9042 8.44558L7.63104 10.2139C6.93927 10.7429 6.74172 11.7001 7.16763 12.4598L7.34813 12.7877C7.98706 13.9597 8.78142 15.4175 11.6815 18.3173C14.5816 21.2171 16.0389 22.0116 17.2102 22.6505L17.5386 22.8315C18.2982 23.2573 19.2553 23.0598 19.7843 22.368L21.5525 20.0947C21.8 19.7794 22.2479 19.7068 22.5824 19.9277L28.6539 23.9774C28.9948 24.2037 29.097 24.6583 28.8858 25.0088Z" fill="#FF1921"/>
<path d="M16.9991 5.00147C21.6907 5.00669 25.4926 8.80895 25.4979 13.5008C25.4979 13.777 25.7217 14.0008 25.9978 14.0008C26.2739 14.0008 26.4977 13.777 26.4977 13.5008C26.4919 8.25693 22.2427 4.00733 16.9991 4.00159C16.723 4.00159 16.4992 4.2254 16.4992 4.50153C16.4992 4.77766 16.723 5.00147 16.9991 5.00147Z" fill="#FF1921"/>
<path d="M16.9991 8.00127C20.0348 8.00485 22.4947 10.465 22.4983 13.5009C22.4983 13.777 22.7222 14.0008 22.9982 14.0008C23.2743 14.0008 23.4981 13.777 23.4981 13.5009C23.494 9.91298 20.5867 7.00549 16.9991 7.00139C16.723 7.00139 16.4992 7.2252 16.4992 7.50133C16.4992 7.77746 16.723 8.00127 16.9991 8.00127Z" fill="#FF1921"/>
<path d="M16.9991 11.001C18.3789 11.0027 19.4971 12.1209 19.4988 13.5008C19.4988 13.777 19.7226 14.0008 19.9987 14.0008C20.2747 14.0008 20.4986 13.777 20.4986 13.5008C20.4963 11.5689 18.9309 10.0033 16.9991 10.0011C16.723 10.0011 16.4992 10.2249 16.4992 10.5011C16.4992 10.7772 16.723 11.001 16.9991 11.001Z" fill="#FF1921"/>
</svg>
