<?xml version="1.0" encoding="utf-8"?><svg xmlns="http://www.w3.org/2000/svg" xmlns:xlink="http://www.w3.org/1999/xlink"><symbol fill="none" viewBox="0 0 21 16" id="arrow" xmlns="http://www.w3.org/2000/svg"><path d="M20.707 8.707a1 1 0 000-1.414L14.343.929a1 1 0 10-1.414 1.414L18.586 8l-5.657 5.657a1 1 0 001.414 1.414l6.364-6.364zM0 9h20V7H0v2z" fill="#707070" fill-opacity=".7"/></symbol><symbol fill="none" viewBox="0 0 40 40" id="bell" xmlns="http://www.w3.org/2000/svg"><path d="M39.62 15.849c0-4.074-3.315-7.389-7.39-7.389a7.34 7.34 0 00-2.574.472 14.288 14.288 0 00-7.992-4.836v-.7A3.4 3.4 0 0018.268 0a3.4 3.4 0 00-3.396 3.396v.898c-6.08 1.663-10.566 7.22-10.566 13.82v11.32h-.378A3.4 3.4 0 00.532 32.83a3.4 3.4 0 003.396 3.396h10.325A4.871 4.871 0 0019.023 40a4.87 4.87 0 004.77-3.774h9.57a3.4 3.4 0 003.395-3.396 3.4 3.4 0 00-3.396-3.396h-.377V23.2c3.721-.38 6.635-3.531 6.635-7.351zm-1.51 0a5.886 5.886 0 01-5.88 5.88 5.886 5.886 0 01-5.88-5.88 5.886 5.886 0 015.88-5.88 5.886 5.886 0 015.88 5.88zM16.381 3.396a1.89 1.89 0 011.887-1.887 1.89 1.89 0 011.887 1.887v.459a14.467 14.467 0 00-1.51-.081c-.772 0-1.524.078-2.264.196v-.574zm2.642 35.095a3.367 3.367 0 01-3.192-2.265h6.384a3.367 3.367 0 01-3.192 2.265zm14.34-7.547c1.04 0 1.886.846 1.886 1.886s-.846 1.887-1.887 1.887H3.928a1.889 1.889 0 01-1.887-1.887c0-1.04.846-1.886 1.887-1.886h1.133a.754.754 0 00.754-.755V18.113c0-7.074 5.756-12.83 12.83-12.83 3.7 0 7.166 1.588 9.606 4.35a7.383 7.383 0 00-3.41 6.216c0 3.82 2.913 6.971 6.634 7.351v6.989c0 .416.338.755.755.755h1.132z" fill="#E21F26" fill-opacity=".7"/><path d="M20.91 29.434H19.4a.755.755 0 100 1.51h1.51a.755.755 0 100-1.51zm-4.278 0H8.834a.755.755 0 100 1.51h7.798a.755.755 0 100-1.51zM33.53 20h-1.811v-4.957l.017-.814.03-.891c-.301.3-.51.498-.627.592l-.985.79-.873-1.09 2.76-2.196h1.488V20z" fill="#E21F26" fill-opacity=".7"/></symbol><symbol fill="none" viewBox="0 0 18 14" id="check" xmlns="http://www.w3.org/2000/svg"><path d="M17.737.387a.703.703 0 00-.988.108L7.393 12.14a.697.697 0 01-.485.222.695.695 0 01-.51-.191L1.19 7.178a.703.703 0 00-.973 1.015l5.21 4.994a2.091 2.091 0 001.538.579 2.092 2.092 0 001.51-.73l9.37-11.66a.703.703 0 00-.108-.989z" fill="#000"/></symbol><symbol fill="none" viewBox="0 0 22 22" id="exit" xmlns="http://www.w3.org/2000/svg"><path d="M14.208 16.5a.458.458 0 00-.458.458v3.209a.918.918 0 01-.917.916h-11a.918.918 0 01-.916-.916V1.833c0-.505.411-.916.916-.916h11c.506 0 .917.411.917.916v3.209a.458.458 0 10.917 0V1.833A1.835 1.835 0 0012.833 0h-11A1.835 1.835 0 000 1.833v18.334C0 21.177.822 22 1.833 22h11a1.835 1.835 0 001.834-1.833v-3.209a.458.458 0 00-.459-.458z" fill="#FF1921"/><path d="M21.851 10.662l-5.5-5.042a.459.459 0 00-.62.676l4.632 4.245H5.958a.458.458 0 100 .917h14.406l-4.632 4.246a.458.458 0 00.62.675l5.5-5.041a.458.458 0 000-.676z" fill="#FF1921"/></symbol><symbol fill="none" viewBox="0 0 50 147" id="pattern-mobile" xmlns="http://www.w3.org/2000/svg"><path fill="#fff" d="M0-1.579h2.941v3.053H0zm11.765 0h2.941v3.053h-2.941zm11.764 0h2.941v3.053h-2.941zm11.765 0h2.941v3.053h-2.941zm11.765 0H50v3.053h-2.941zM0 10.631h2.941v3.053H0zm11.765.001h2.941v3.053h-2.941zm11.764-.001h2.941v3.053h-2.941zm11.765 0h2.941v3.053h-2.941zm11.765.001H50v3.053h-2.941zM0 22.842h2.941v3.053H0zm11.765 0h2.941v3.053h-2.941zm11.765 0h2.941v3.053H23.53zm11.764 0h2.941v3.053h-2.941zm11.765 0H50v3.053h-2.941zM0 35.053h2.941v3.053H0zm11.765 0h2.941v3.053h-2.941zm11.764 0h2.941v3.053h-2.941zm11.765 0h2.941v3.053h-2.941zm11.765 0H50v3.053h-2.941zM0 47.263h2.941v3.053H0zm11.765 0h2.941v3.053h-2.941zm11.764 0h2.941v3.053h-2.941zm11.765 0h2.941v3.053h-2.941zm11.765 0H50v3.053h-2.941zM0 59.473h2.941v3.053H0zm11.765 0h2.941v3.053h-2.941zm11.764 0h2.941v3.053h-2.941zm11.765 0h2.941v3.053h-2.941zm11.765 0H50v3.053h-2.941zM0 71.684h2.941v3.053H0zm11.765 0h2.941v3.053h-2.941zm11.764 0h2.941v3.053h-2.941zm11.765 0h2.941v3.053h-2.941zm11.765 0H50v3.053h-2.941zM0 83.894h2.941v3.053H0zm11.765 0h2.941v3.053h-2.941zm11.764 0h2.941v3.053h-2.941zm11.765 0h2.941v3.053h-2.941zm11.765 0H50v3.053h-2.941zM0 96.105h2.941v3.053H0zm11.765 0h2.941v3.053h-2.941zm11.765 0h2.941v3.053H23.53zm11.764 0h2.941v3.053h-2.941zm11.765 0H50v3.053h-2.941zM0 108.315h2.941v3.053H0zm11.765 0h2.941v3.053h-2.941zm11.764 0h2.941v3.053h-2.941zm11.765 0h2.941v3.053h-2.941zm11.765 0H50v3.053h-2.941zM0 120.526h2.941v3.053H0zm11.765 0h2.941v3.053h-2.941zm11.764 0h2.941v3.053h-2.941zm11.765 0h2.941v3.053h-2.941zm11.765 0H50v3.053h-2.941zM0 132.737h2.941v3.053H0zm11.765 0h2.941v3.053h-2.941zm11.764 0h2.941v3.053h-2.941zm11.765 0h2.941v3.053h-2.941zm11.765 0H50v3.053h-2.941zM0 144.947h2.941V148H0zm11.765 0h2.941V148h-2.941zm11.764 0h2.941V148h-2.941zm11.765 0h2.941V148h-2.941zm11.765 0H50V148h-2.941z"/></symbol><symbol fill="none" viewBox="0 0 30 30" id="phone" xmlns="http://www.w3.org/2000/svg"><path d="M29.213 23.144l-6.072-4.05a1.772 1.772 0 00-2.373.386l-1.77 2.274a.756.756 0 01-.969.204l-.336-.185c-1.115-.608-2.503-1.365-5.3-4.163-2.795-2.797-3.554-4.186-4.162-5.3l-.184-.336a.757.757 0 01.2-.973l2.273-1.768c.727-.57.895-1.602.385-2.373L6.856.787A1.763 1.763 0 004.479.252L1.94 1.778a3.582 3.582 0 00-1.633 2.12c-.914 3.33-.226 9.08 8.243 17.552C15.288 28.188 20.304 30 23.751 30c.794.003 1.584-.1 2.35-.307a3.579 3.579 0 002.12-1.633l1.526-2.538a1.763 1.763 0 00-.534-2.378zm-.327 1.865l-1.523 2.54a2.586 2.586 0 01-1.525 1.181c-3.076.845-8.449.145-16.58-7.987C1.126 12.611.428 7.238 1.27 4.162a2.588 2.588 0 011.184-1.527l2.539-1.523a.765.765 0 011.031.232l2.2 3.302 1.846 2.77a.77.77 0 01-.167 1.03L7.63 10.214a1.75 1.75 0 00-.463 2.246l.18.328c.64 1.172 1.433 2.63 4.333 5.53 2.9 2.9 4.358 3.694 5.53 4.332l.328.181a1.75 1.75 0 002.245-.463l1.768-2.273a.77.77 0 011.03-.167l6.072 4.05c.34.226.443.68.232 1.03zM17 5.001a8.509 8.509 0 018.498 8.5.5.5 0 101 0A9.51 9.51 0 0016.999 4a.5.5 0 100 1z" fill="#FF1921"/><path d="M17 8.001a5.506 5.506 0 015.498 5.5.5.5 0 001 0A6.507 6.507 0 0017 7a.5.5 0 100 1z" fill="#FF1921"/><path d="M17 11.001a2.503 2.503 0 012.499 2.5.5.5 0 101 0 3.504 3.504 0 00-3.5-3.5.5.5 0 000 1z" fill="#FF1921"/></symbol><symbol fill="none" viewBox="0 0 18 20" id="play" xmlns="http://www.w3.org/2000/svg"><path d="M.343 0v20l17.314-10L.343 0zm1.55 2.686L14.558 10 1.894 17.314V2.686z" fill="#fff"/></symbol><symbol fill="none" viewBox="0 0 30 30" id="point" xmlns="http://www.w3.org/2000/svg"><path d="M15 13c1.93 0 3.5-1.57 3.5-3.5S16.93 6 15 6s-3.5 1.57-3.5 3.5S13.07 13 15 13zm0-6c1.378 0 2.5 1.121 2.5 2.5S16.378 12 15 12a2.503 2.503 0 01-2.5-2.5C12.5 8.121 13.621 7 15 7z" fill="#FF1921"/><path d="M14.912 27.378l7.67-11.078c2.877-3.836 2.461-10.14-.89-13.491A9.524 9.524 0 0014.912 0a9.526 9.526 0 00-6.78 2.808C4.78 6.16 4.364 12.465 7.23 16.285l7.681 11.093zM8.838 3.515A8.534 8.534 0 0114.91 1c2.295 0 4.451.893 6.074 2.515 3.024 3.025 3.397 8.719.786 12.2l-6.86 9.907L8.04 15.7c-2.6-3.466-2.227-9.16.798-12.184z" fill="#FF1921"/><path d="M21.058 21.503a.5.5 0 00-.117.993C26.2 23.117 29 24.785 29 25.75 29 27.107 23.674 29 15 29S1 27.107 1 25.75c0-.966 2.8-2.634 8.059-3.253a.5.5 0 00-.117-.994C3.676 22.123 0 23.87 0 25.75 0 27.862 5.152 30 15 30c9.848 0 15-2.138 15-4.25 0-1.88-3.677-3.627-8.942-4.247z" fill="#FF1921"/></symbol><symbol fill="none" viewBox="0 0 9 16" id="slide" xmlns="http://www.w3.org/2000/svg"><path d="M8.707 8.707a1 1 0 000-1.414L2.343.929A1 1 0 00.93 2.343L6.586 8 .929 13.657a1 1 0 101.414 1.414l6.364-6.364zM7 9h1V7H7v2z" fill="#fff"/></symbol><symbol fill="none" viewBox="0 0 12 20" id="slider" xmlns="http://www.w3.org/2000/svg"><path d="M10.779.005a.435.435 0 01.307.742l-9.255 9.255 9.255 9.255a.435.435 0 11-.615.615L.908 10.31a.435.435 0 010-.615L10.471.133a.434.434 0 01.308-.128z" fill="#515353"/></symbol><symbol fill="none" viewBox="0 0 30 30" id="user" xmlns="http://www.w3.org/2000/svg"><path d="M30 15c0-8.27-6.73-15-15-15S0 6.73 0 15c0 4.369 1.879 8.306 4.869 11.05l-.014.012.486.41c.032.027.066.05.098.075a15.1 15.1 0 001.066.805c.29.2.59.39.895.572l.2.115c.335.19.677.37 1.026.535l.078.034c1.14.53 2.356.92 3.628 1.149l.1.018a14.8 14.8 0 001.198.159l.148.011c.403.034.81.055 1.222.055.409 0 .812-.021 1.212-.053.05-.005.102-.008.152-.012.401-.037.797-.09 1.188-.156l.102-.019a14.862 14.862 0 003.577-1.12l.125-.058a15.052 15.052 0 002.09-1.194c.1-.068.199-.14.299-.213.24-.172.474-.35.703-.536.05-.041.105-.076.155-.119l.499-.416-.015-.013A14.961 14.961 0 0030 15zM1.09 15C1.09 7.33 7.33 1.09 15 1.09S28.91 7.33 28.91 15c0 4.133-1.814 7.849-4.686 10.398-.16-.11-.322-.21-.487-.293l-4.618-2.309a1.21 1.21 0 01-.672-1.087v-1.613c.107-.132.22-.281.336-.445a11.117 11.117 0 001.427-2.795 1.98 1.98 0 001.137-1.794V13.13c0-.473-.173-.932-.483-1.293V9.291c.028-.283.128-1.881-1.027-3.199C18.83 4.945 17.204 4.364 15 4.364c-2.204 0-3.831.58-4.836 1.728C9.008 7.409 9.108 9.007 9.136 9.29v2.546c-.31.36-.483.82-.483 1.292v1.934c0 .6.269 1.16.73 1.538.442 1.731 1.352 3.041 1.688 3.485v1.579c0 .445-.243.854-.634 1.068l-4.313 2.352a3.942 3.942 0 00-.41.26A13.876 13.876 0 011.09 15zm22.07 11.254c-.192.138-.386.272-.582.4a13.657 13.657 0 01-1.06.628c-.059.032-.118.061-.178.092a13.89 13.89 0 01-1.902.805l-.07.023c-.341.114-.688.214-1.038.301h-.003c-.354.088-.712.16-1.072.22l-.029.006c-.339.055-.68.095-1.023.125l-.182.013a13.34 13.34 0 01-1.021.042c-.346 0-.69-.017-1.034-.043l-.177-.013c-.346-.03-.69-.072-1.031-.127l-.046-.008c-.721-.12-1.43-.298-2.122-.53l-.064-.022a14.094 14.094 0 01-1.016-.389l-.007-.003a14.238 14.238 0 01-.93-.445 14.015 14.015 0 01-1.177-.692 13.9 13.9 0 01-.73-.509l-.073-.056.053-.03 4.313-2.352a2.307 2.307 0 001.203-2.026l-.001-1.965-.125-.152c-.012-.013-1.192-1.448-1.637-3.39l-.05-.216-.186-.12a.904.904 0 01-.42-.76v-1.934a.89.89 0 01.304-.667l.18-.162V9.26l-.005-.072c-.001-.013-.162-1.325.762-2.378.789-.899 2.14-1.355 4.016-1.355 1.869 0 3.216.452 4.007 1.345.923 1.042.772 2.378.77 2.39l-.004 3.109.18.162a.892.892 0 01.303.668v1.933a.911.911 0 01-.644.86l-.27.083-.088.27c-.322 1-.78 1.923-1.362 2.745-.142.201-.282.38-.4.517l-.136.155v2.017c0 .88.488 1.67 1.275 2.063l4.619 2.309.087.045c-.059.044-.119.085-.177.128z" fill="#00B32F"/></symbol><symbol fill="none" viewBox="0 0 22 22" id="user-red" xmlns="http://www.w3.org/2000/svg"><path d="M22 11c0-6.065-4.935-11-11-11S0 4.935 0 11c0 3.204 1.378 6.091 3.57 8.103l-.01.01.357.3c.023.02.048.036.071.055.19.157.386.306.586.45a11.202 11.202 0 00.852.558l.148.086c.245.14.496.271.752.392l.057.026a10.901 10.901 0 003.613.972l.108.008c.295.024.594.04.896.04.3 0 .595-.016.889-.04.037-.002.074-.004.111-.008.294-.026.585-.065.872-.114l.074-.014a10.9 10.9 0 002.623-.822l.092-.042a11.056 11.056 0 001.532-.875c.074-.05.147-.104.22-.157.175-.126.348-.256.515-.393.038-.03.078-.056.114-.087l.366-.305-.01-.01A10.972 10.972 0 0022 11zM.8 11C.8 5.376 5.376.8 11 .8S21.2 5.376 21.2 11c0 3.03-1.33 5.756-3.436 7.625a2.998 2.998 0 00-.357-.215l-3.387-1.693a.887.887 0 01-.492-.797v-1.183a8.152 8.152 0 001.293-2.376 1.45 1.45 0 00.834-1.315V9.628c0-.347-.127-.684-.355-.948V6.813c.02-.207.094-1.379-.753-2.345C13.81 3.626 12.617 3.2 11 3.2c-1.616 0-2.81.426-3.547 1.267-.847.967-.774 2.138-.753 2.346V8.68c-.227.264-.355.6-.355.947v1.418c0 .44.198.851.536 1.129a7.516 7.516 0 001.237 2.555v1.158a.892.892 0 01-.464.783L4.49 18.395a3.005 3.005 0 00-.301.19A10.176 10.176 0 01.8 11zm16.184 8.253c-.14.101-.283.2-.427.294l-.2.128c-.189.117-.381.228-.577.332l-.13.067c-.45.23-.917.43-1.396.59l-.05.018c-.251.083-.505.157-.762.22h-.002c-.26.065-.522.118-.786.162-.007 0-.014.002-.022.004a9.84 9.84 0 01-.75.091l-.133.01A9.828 9.828 0 0111 21.2c-.254 0-.506-.012-.758-.031l-.13-.01a10.345 10.345 0 01-.756-.093l-.034-.006a10.162 10.162 0 01-1.556-.389l-.047-.016c-.252-.085-.5-.18-.745-.285l-.005-.002c-.231-.1-.458-.21-.682-.327l-.088-.045a10.28 10.28 0 01-.775-.462 10.267 10.267 0 01-.536-.373l-.053-.042.039-.021 3.162-1.726a1.69 1.69 0 00.882-1.485v-1.441l-.092-.111a6.664 6.664 0 01-1.2-2.487l-.037-.158-.136-.088a.663.663 0 01-.308-.557V9.627c0-.186.079-.36.223-.49l.132-.119V6.79l-.004-.052c0-.01-.119-.972.559-1.744C8.633 4.334 9.625 4 11 4c1.37 0 2.358.332 2.938.986.677.765.566 1.745.566 1.753l-.004 2.28.132.12a.651.651 0 01.223.489v1.418a.668.668 0 01-.473.63l-.198.06-.064.199a7.4 7.4 0 01-.999 2.013 5.27 5.27 0 01-.294.38l-.1.112v1.48c0 .645.359 1.225.936 1.513l3.387 1.693.064.033c-.043.033-.087.063-.13.094z" fill="#FF1921"/></symbol></svg>