<svg width="22" height="22" viewBox="0 0 22 22" fill="none" xmlns="http://www.w3.org/2000/svg">
<path d="M14.2083 16.5C13.955 16.5 13.75 16.705 13.75 16.9583V20.1667C13.75 20.672 13.3387 21.0833 12.8333 21.0833H1.83335C1.32804 21.0833 0.916695 20.672 0.916695 20.1667V1.83335C0.916695 1.32804 1.32804 0.916695 1.83335 0.916695H12.8333C13.3387 0.916695 13.75 1.32804 13.75 1.83335V5.0417C13.75 5.29504 13.955 5.50004 14.2083 5.50004C14.4617 5.50004 14.6667 5.29504 14.6667 5.0417V1.83335C14.6667 0.822207 13.8444 0 12.8333 0H1.83335C0.822207 0 0 0.822207 0 1.83335V20.1667C0 21.1778 0.822207 22 1.83335 22H12.8333C13.8444 22 14.6667 21.1778 14.6667 20.1667V16.9583C14.6667 16.705 14.4617 16.5 14.2083 16.5Z" fill="#FF1921"/>
<path d="M21.8514 10.6619L16.3514 5.62028C16.1639 5.44931 15.8752 5.46229 15.7037 5.64847C15.5328 5.83513 15.5453 6.12517 15.7319 6.29614L20.3635 10.5415H5.95835C5.705 10.5415 5.5 10.7465 5.5 10.9999C5.5 11.2532 5.705 11.4582 5.95835 11.4582H20.3636L15.732 15.7036C15.5453 15.8746 15.5328 16.1646 15.7038 16.3513C15.7942 16.4498 15.9177 16.4999 16.0417 16.4999C16.1523 16.4999 16.2633 16.4601 16.3515 16.3795L21.8515 11.3378C21.9463 11.251 22 11.1284 22 10.9999C22 10.8714 21.9463 10.7488 21.8514 10.6619Z" fill="#FF1921"/>
</svg>
