<svg width="30" height="30" viewBox="0 0 30 30" fill="none" xmlns="http://www.w3.org/2000/svg">
<path d="M30 15C30 6.72927 23.2707 0 15 0C6.72927 0 0 6.72927 0 15C0 19.3685 1.87855 23.3062 4.86873 26.0498L4.85455 26.0624L5.34109 26.4725C5.37273 26.4993 5.40709 26.5211 5.43873 26.5473C5.69727 26.7616 5.96509 26.9651 6.23782 27.162C6.32618 27.2258 6.41455 27.2896 6.50455 27.3518C6.79582 27.5525 7.09473 27.7429 7.40018 27.9235C7.46673 27.9627 7.53382 28.0009 7.60091 28.0391C7.93527 28.2295 8.27673 28.4089 8.62636 28.5736C8.652 28.5856 8.67818 28.5965 8.70382 28.6085C9.84327 29.1382 11.0596 29.5271 12.3316 29.7567C12.3649 29.7627 12.3982 29.7687 12.432 29.7747C12.8269 29.8429 13.2262 29.8975 13.6304 29.934C13.6795 29.9384 13.7285 29.9411 13.7782 29.9455C14.1807 29.9787 14.5876 30 15 30C15.4085 30 15.8116 29.9787 16.212 29.9465C16.2627 29.9422 16.3135 29.9395 16.3642 29.9351C16.7651 29.8985 17.1611 29.8456 17.5522 29.7785C17.586 29.7725 17.6204 29.7665 17.6542 29.76C18.9071 29.5353 20.106 29.1551 21.2307 28.6391C21.2722 28.62 21.3142 28.602 21.3556 28.5824C21.6922 28.4242 22.0211 28.2535 22.3435 28.0718C22.4236 28.0265 22.5033 27.9807 22.5829 27.9338C22.8764 27.7609 23.1649 27.5804 23.4453 27.3884C23.5462 27.3196 23.6449 27.2471 23.7447 27.1751C23.9842 27.0027 24.2193 26.8249 24.4478 26.6389C24.4985 26.598 24.5531 26.5625 24.6027 26.5205L25.1018 26.1038L25.0871 26.0913C28.1035 23.3465 30 19.3909 30 15ZM1.09091 15C1.09091 7.33036 7.33036 1.09091 15 1.09091C22.6696 1.09091 28.9091 7.33036 28.9091 15C28.9091 19.1329 27.0955 22.8485 24.2242 25.398C24.0638 25.2873 23.9024 25.188 23.7371 25.1051L19.1187 22.7962C18.7042 22.5889 18.4467 22.1722 18.4467 21.7091V20.0962C18.5536 19.9642 18.6665 19.8147 18.7833 19.6505C19.3811 18.8062 19.8605 17.8669 20.2102 16.8562C20.9013 16.5278 21.3475 15.8395 21.3475 15.0622V13.1285C21.3475 12.6556 21.174 12.1969 20.8636 11.8364V9.29073C20.892 9.00764 20.9924 7.41 19.8365 6.09218C18.8313 4.94455 17.2042 4.36364 15 4.36364C12.7958 4.36364 11.1687 4.94455 10.1635 6.09164C9.00764 7.40945 9.108 9.00709 9.13636 9.29018V11.8358C8.82655 12.1964 8.65255 12.6551 8.65255 13.128V15.0616C8.65255 15.6622 8.922 16.2224 9.38345 16.6004C9.82527 18.3311 10.7345 19.6413 11.0705 20.0853V21.6638C11.0705 22.1089 10.8278 22.518 10.4367 22.7318L6.12382 25.0844C5.98636 25.1591 5.85 25.2464 5.71364 25.344C2.87782 22.7956 1.09091 19.1029 1.09091 15ZM23.1595 26.2538C22.9685 26.3924 22.7744 26.5265 22.5775 26.6547C22.4869 26.7136 22.3969 26.7725 22.3047 26.8298C22.0473 26.9891 21.7855 27.1407 21.5182 27.2825C21.4593 27.3136 21.3998 27.3431 21.3404 27.3736C20.7262 27.6884 20.0907 27.9589 19.4378 28.1787C19.4149 28.1864 19.392 28.1945 19.3685 28.2022C19.0265 28.3156 18.6802 28.4165 18.33 28.5033C18.3289 28.5033 18.3278 28.5038 18.3267 28.5038C17.9733 28.5911 17.6155 28.6636 17.2555 28.7231C17.2456 28.7247 17.2358 28.7269 17.226 28.7285C16.8873 28.7836 16.5458 28.8235 16.2033 28.8535C16.1427 28.8589 16.0822 28.8627 16.0211 28.8671C15.6824 28.8927 15.342 28.9091 15 28.9091C14.6542 28.9091 14.3095 28.8922 13.9664 28.8665C13.9069 28.8622 13.8475 28.8584 13.7885 28.8529C13.4427 28.8224 13.0985 28.7815 12.7576 28.7258C12.7424 28.7231 12.7271 28.7204 12.7118 28.7176C11.9907 28.5971 11.2811 28.4198 10.59 28.188C10.5687 28.1809 10.5469 28.1733 10.5256 28.1662C10.1825 28.0495 9.84327 27.9202 9.51 27.7773C9.50782 27.7762 9.50509 27.7751 9.50291 27.774C9.18764 27.6382 8.87836 27.4876 8.57291 27.3289C8.53309 27.3082 8.49273 27.2885 8.45345 27.2673C8.17473 27.1184 7.902 26.9575 7.63309 26.7895C7.55345 26.7393 7.47436 26.6885 7.39582 26.6373C7.14818 26.4753 6.90382 26.3067 6.666 26.1284C6.64145 26.1098 6.618 26.0902 6.59345 26.0716C6.61091 26.0618 6.62836 26.052 6.64582 26.0422L10.9587 23.6896C11.7005 23.2849 12.1615 22.5087 12.1615 21.6638L12.1609 19.6991L12.0355 19.5475C12.0235 19.5338 10.8442 18.0993 10.3985 16.1569L10.3489 15.9409L10.1629 15.8204C9.90055 15.6507 9.74345 15.3671 9.74345 15.0611V13.1275C9.74345 12.8738 9.85091 12.6376 10.0473 12.4604L10.2273 12.2978V9.25964L10.2224 9.18818C10.2207 9.17509 10.0598 7.86327 10.9838 6.81C11.7725 5.91109 13.1242 5.45455 15 5.45455C16.8687 5.45455 18.216 5.90727 19.0069 6.79964C19.9298 7.842 19.7787 9.17836 19.7776 9.18927L19.7727 12.2989L19.9527 12.4615C20.1485 12.6382 20.2565 12.8749 20.2565 13.1285V15.0622C20.2565 15.4511 19.992 15.804 19.6124 15.9213L19.3413 16.0047L19.254 16.2747C18.9322 17.2745 18.474 18.198 17.8925 19.0195C17.7496 19.2213 17.6105 19.4002 17.4911 19.5371L17.3558 19.6915V21.7091C17.3558 22.5884 17.8445 23.3793 18.6311 23.772L23.2495 26.0809C23.2789 26.0956 23.3078 26.1109 23.3367 26.1262C23.2784 26.1704 23.2184 26.2113 23.1595 26.2538Z" fill="#00B32F"/>
</svg>
